<?xml version="1.0" encoding="utf-8"?>
<svg id="EMPLOYEE_1" data-name="EMPLOYEE 1" viewBox="0 0 1600 1400" xmlns="http://www.w3.org/2000/svg">
  <defs>
    <style>.cls-1{fill:#88c0c2;}.cls-2{fill:#fff;}.cls-3{fill:#de9244;}.cls-4{fill:#262424;}</style>
  </defs>
  <title>Hiring People</title>
  <path class="cls-1" d="M386.8,1209.18a79.37,79.37,0,1,1-79.37-79.37A79.24,79.24,0,0,1,386.8,1209.18Z"/>
  <circle class="cls-2" cx="307.43" cy="1180.48" r="22.18"/>
  <path class="cls-2" d="M356.48,1254.14a66.5,66.5,0,0,1-98.11,0,49.33,49.33,0,0,1,32.29-41.42,36.35,36.35,0,0,0,33.53,0A49.33,49.33,0,0,1,356.48,1254.14Z"/>
  <path class="cls-1" d="M728.84,1196.15a66.34,66.34,0,1,1-66.34-66.34A66.23,66.23,0,0,1,728.84,1196.15Z"/>
  <circle class="cls-2" cx="662.49" cy="1172.17" r="18.54"/>
  <path class="cls-2" d="M703.5,1233.73a55.58,55.58,0,0,1-82,0,41.23,41.23,0,0,1,27-34.63,30.39,30.39,0,0,0,28,0A41.23,41.23,0,0,1,703.5,1233.73Z"/>
  <path class="cls-1" d="M524.94,902.91A116.25,116.25,0,1,1,408.69,786.66,116.06,116.06,0,0,1,524.94,902.91Z"/>
  <circle class="cls-2" cx="408.69" cy="860.88" r="32.49"/>
  <path class="cls-2" d="M480.54,968.76a97.4,97.4,0,0,1-143.7,0,72.25,72.25,0,0,1,47.3-60.67,53.25,53.25,0,0,0,49.11,0A72.25,72.25,0,0,1,480.54,968.76Z"/>
  <path class="cls-3" d="M288.56,843.21l30.33,30.33a13.5,13.5,0,0,0,19.09,0l77.33-77.33a13.5,13.5,0,1,0-19.09-19.09L328.44,844.9l-20.79-20.79a13.5,13.5,0,1,0-19.09,19.09h0Z" style="fill: rgb(25, 57, 68);"/>
  <polygon class="cls-2" points="788.78 1089.08 828.45 1129.81 843.56 1113.58 807.25 1068.76 788.78 1089.08"/>
  <path class="cls-4" d="M828.45,1132a2.18,2.18,0,0,1-1.56-.66l-39.67-40.72a2.18,2.18,0,0,1-.05-3l18.47-20.32a2.13,2.13,0,0,1,1.67-.71,2.17,2.17,0,0,1,1.63.8l36.3,44.82a2.17,2.17,0,0,1-.1,2.85L830,1131.29a2.17,2.17,0,0,1-1.57.69h0Zm-36.68-43,36.64,37.62,12.27-13.18-33.52-41.38Z"/>
  <path class="cls-1" d="M832.1,1247.11L840,1253l73.15-97.64s-3.89-3.4-10.59-8.9a673.29,673.29,0,0,0-62.3-45.88L811.91,1128s7.79,47.59,11.63,87.62c0.4,4.15.64,8.4,0.66,12.69C824.25,1236.58,827,1243.26,832.1,1247.11Z"/>
  <path class="cls-4" d="M845.2,1187.11a2.17,2.17,0,0,1-2.14-1.83c-6-37.06-16.84-59.73-17-60a2.17,2.17,0,1,1,3.91-1.9c0.46,0.94,11.23,23.48,17.33,61.16a2.17,2.17,0,0,1-1.8,2.49Z"/>
  <ellipse class="cls-2" cx="865.4" cy="1143.75" rx="10.83" ry="12.06" transform="translate(-568.84 1150.62) rotate(-53.16)"/>
  <path class="cls-4" d="M866.57,1157.22a15,15,0,0,1-9-3.05h0a14.87,14.87,0,0,1-5.75-9A12.24,12.24,0,0,1,863,1130.34a15.22,15.22,0,0,1,16,12,12.24,12.24,0,0,1-11.12,14.85Q867.19,1157.22,866.57,1157.22Zm-2.35-22.58q-0.43,0-.87,0a7.9,7.9,0,0,0-7.24,9.67,10.54,10.54,0,0,0,4.09,6.33h0a10.54,10.54,0,0,0,7.23,2.15,7.9,7.9,0,0,0,7.25-9.67,10.54,10.54,0,0,0-4.09-6.33A10.65,10.65,0,0,0,864.22,1134.64Z"/>
  <path class="cls-2" d="M832.1,1247.11L840,1253l73.15-97.64s-3.89-3.4-10.59-8.9L863.94,1198s-25.43-13.91-40.39,17.62c0.4,4.15.64,8.4,0.66,12.69C824.25,1236.58,827,1243.26,832.1,1247.11Z"/>
  <path class="cls-4" d="M840,1255.2a2.16,2.16,0,0,1-1.3-.43l-7.9-5.92h0c-5.59-4.19-8.71-11.47-8.76-20.5,0-4-.24-8.23-0.65-12.5a2.18,2.18,0,0,1,.2-1.14c5.16-10.87,12.12-17.8,20.69-20.58,9.17-3,17.49-.3,21,1.17l37.56-50.13a2.17,2.17,0,0,1,3.12-.38c6.66,5.46,10.61,8.92,10.65,8.95a2.17,2.17,0,0,1,.31,2.94l-73.15,97.64A2.17,2.17,0,0,1,840,1255.2Zm-6.59-9.83,6.16,4.61,70.63-94.28c-1.47-1.26-3.95-3.36-7.26-6.1l-37.25,49.72a2.17,2.17,0,0,1-2.78.6c-0.09,0-9.3-4.93-19.33-1.65-7.22,2.36-13.21,8.33-17.79,17.75,0.38,4.19.59,8.32,0.61,12.28,0,7.63,2.54,13.69,7,17h0Z"/>
  <path class="cls-1" d="M894.48,844.51L761.06,979.57l63.42,75.77c-6.59,37.07-50.24,51.89-50.24,51.89s-61-48.1-95.8-79.49c-13.4-12.07-22.93-21.68-23.62-25.11-1.22-6.08,1.35-17,6.39-30.84,23.11-63.47,98.21-188.23,98.21-188.23,31.29-54.36,99.65-75.77,129.3-28S894.48,844.51,894.48,844.51Z"/>
  <path class="cls-2" d="M691.33,1002.65a30.82,30.82,0,0,1-12.89,25.09c-13.4-12.07-22.93-21.68-23.62-25.11-1.22-6.08,1.35-17,6.39-30.84A30.87,30.87,0,0,1,691.33,1002.65Z"/>
  <path class="cls-4" d="M791.08,1071a2.21,2.21,0,0,1-1.73-.83l-66.6-82.92a2.21,2.21,0,0,1,.12-2.91L866.52,833.53a2.21,2.21,0,0,1,3.2,3.05L727.42,986l65.38,81.41A2.21,2.21,0,0,1,791.08,1071Z"/>
  <path class="cls-4" d="M886.29,841.3h-0.2l-16.27-1.48a2.21,2.21,0,0,1-1.7-1.07c-10.22-17-33.75-53.32-34-53.68a2.21,2.21,0,0,1,3.71-2.41c0.23,0.36,22.95,35.39,33.49,52.85l15.16,1.38A2.21,2.21,0,0,1,886.29,841.3Z"/>
  <path class="cls-4" d="M707,991a2.21,2.21,0,0,1-.33-4.4l46-7a2.21,2.21,0,1,1,.67,4.37l-46,7Z"/>
  <path class="cls-4" d="M763.65,1090.59a2.21,2.21,0,0,1,0-4.42c1.26,0,30.69-1.1,43-33.19a2.21,2.21,0,1,1,4.13,1.59c-13.44,34.93-46.74,36-47.07,36h0Z"/>
  <polygon class="cls-2" points="1246.95 943.36 1303.57 948.46 1304.47 926.3 1247.74 915.91 1246.95 943.36"/>
  <path class="cls-4" d="M1303.57,950.64h-0.2l-56.62-5.1a2.18,2.18,0,0,1-2-2.23l0.79-27.45a2.18,2.18,0,0,1,2.57-2.08l56.73,10.39a2.18,2.18,0,0,1,1.78,2.23l-0.91,22.16A2.18,2.18,0,0,1,1303.57,950.64Zm-54.39-9.26,52.31,4.71,0.74-18-52.38-9.6Z"/>
  <path class="cls-1" d="M1395.4,1019.58l9.67-2-24.39-119.54s-5.13.64-13.69,2a673.29,673.29,0,0,0-75.68,16.08l1.67,39.4s40.75,25.79,73.22,49.52c3.37,2.46,6.7,5.1,9.93,7.94C1382.32,1018.45,1389.11,1020.86,1395.4,1019.58Z"/>
  <path class="cls-4" d="M1357.63,970.65a2.16,2.16,0,0,1-1.16-.34c-31.68-20.13-55.84-27.09-56.08-27.16a2.17,2.17,0,0,1,1.18-4.19c1,0.28,25,7.2,57.23,27.68A2.17,2.17,0,0,1,1357.63,970.65Z"/>
  <ellipse class="cls-2" cx="1340.27" cy="926.03" rx="12.06" ry="10.83" transform="translate(-158.05 286.59) rotate(-11.53)"/>
  <path class="cls-4" d="M1339.74,939.09a14.59,14.59,0,0,1-7.4-2,12.39,12.39,0,0,1-6-8.24c-1.43-7,3.66-14,11.35-15.59s15.11,2.87,16.55,9.9-3.66,14-11.35,15.59h0A15.66,15.66,0,0,1,1339.74,939.09Zm2.69-2.45h0Zm-1.65-19.32a11.21,11.21,0,0,0-2.24.23c-5.34,1.09-8.91,5.78-8,10.46a8.09,8.09,0,0,0,4,5.36,10.53,10.53,0,0,0,7.45,1.15h0c5.34-1.09,8.91-5.78,8-10.46C1349.13,920,1345.24,917.32,1340.78,917.32Z"/>
  <path class="cls-2" d="M1395.4,1019.58l9.67-2-24.39-119.54s-5.13.64-13.69,2l12.87,63.11s-27.29,9.77-13.67,41.9c3.37,2.46,6.7,5.1,9.93,7.94C1382.32,1018.45,1389.11,1020.86,1395.4,1019.58Z"/>
  <path class="cls-4" d="M1392.06,1022.09c-5.77,0-11.81-2.57-17.37-7.45-3-2.66-6.31-5.28-9.77-7.81a2.17,2.17,0,0,1-.72-0.91c-4.7-11.08-5.25-20.88-1.63-29.13,3.87-8.83,11.4-13.27,14.82-14.91l-12.52-61.37a2.17,2.17,0,0,1,1.79-2.58c8.5-1.35,13.71-2,13.76-2a2.18,2.18,0,0,1,2.4,1.72l24.39,119.54a2.17,2.17,0,0,1-1.7,2.57l-9.67,2A18.81,18.81,0,0,1,1392.06,1022.09ZM1368,1003.68c3.39,2.5,6.61,5.08,9.59,7.7,5.74,5,11.92,7.2,17.4,6.08h0l7.54-1.54L1379,900.49c-1.91.26-5.14,0.72-9.38,1.38L1382,962.74a2.18,2.18,0,0,1-1.4,2.48c-0.09,0-9.86,3.68-14.07,13.36C1363.49,985.55,1364,994,1368,1003.68Z"/>
  <path class="cls-1" d="M1251.68,959.41l-100.11-10.77c-14.62-1.57-25.63-2.76-28.1-3-1.79-.19-12.42-4.55-28.26-11.37-62.69-27-206.95-92.67-206.95-92.67S841,751.72,840.43,750.34c-18.24-47.34,18.74-74.46,85.31-78.9s96.65,74,96.65,74l118.34,124.76,110.45,21.69C1274.36,917.49,1251.68,959.41,1251.68,959.41Z"/>
  <path class="cls-4" d="M888.26,843.77a2.21,2.21,0,0,1-2-1.18L855.51,784a2.21,2.21,0,0,1,3.92-2.06l30.79,58.57A2.21,2.21,0,0,1,888.26,843.77Z"/>
  <path class="cls-2" d="M1151.57,948.64c-14.62-1.57-25.63-2.76-28.1-3-1.79-.19-12.42-4.55-28.26-11.37,2-11.08,11.7-19.69,29.74-15.26C1151.91,925.6,1156.75,938.15,1151.57,948.64Z"/>
  <path class="cls-4" d="M1236.39,913.3a2.22,2.22,0,0,1-.36,0L1135.94,897a2.21,2.21,0,0,1-1.1-.52L955.35,739.18a2.21,2.21,0,0,1,2.92-3.33l179,156.88,99.47,16.17A2.21,2.21,0,0,1,1236.39,913.3Z"/>
  <path class="cls-4" d="M978.63,777.82a15,15,0,0,1-9-3l-30.46-22.74a2.21,2.21,0,1,1,2.65-3.54l30.46,22.74a10.55,10.55,0,0,0,8.36,1.89l15.39-3.06a2.21,2.21,0,0,1,.86,4.34l-15.39,3.06A14.94,14.94,0,0,1,978.63,777.82Z"/>
  <path class="cls-4" d="M1238.36,953.24a2.21,2.21,0,0,1-1.68-3.65c16.61-19.37,2.28-51.06,2.14-51.38a2.21,2.21,0,0,1,4-1.86c0.65,1.4,15.67,34.58-2.79,56.12A2.21,2.21,0,0,1,1238.36,953.24Z"/>
  <polygon class="cls-3" points="467.32 710.78 473.43 714.17 622.22 676.89 600.22 580.26 464.05 647.22 467.32 710.78" style="fill: rgb(33, 95, 118);"/>
  <path class="cls-3" d="M550.72,645.2s-37.25,48-77.29,69c-1.32.39-2.65,0.73-4,1-24.13,5-50.5-9.22-45.34-40.17a0.61,0.61,0,0,1,0-.13c5.55-32.58,52.64-48.69,52.64-48.69l59.49-21.67Z" style="fill: rgb(25, 57, 68);"/>
  <path class="cls-4" d="M490.22,706a2.21,2.21,0,0,1-1.27-4c29.43-20.71,54.68-51.47,59.28-57.22l-14-39.54a2.21,2.21,0,1,1,4.17-1.48l14.46,40.69a2.21,2.21,0,0,1-.34,2.1c-0.28.36-28,35.87-61,59.07A2.2,2.2,0,0,1,490.22,706Z"/>
  <path class="cls-2" d="M 471.44 713.17 C 447.31 718.17 420.94 703.95 426.1 673 C 426.095 672.957 426.095 672.913 426.1 672.87 C 431.408 668.947 437.613 666.413 444.15 665.5 C 463 662.74 480 673 482.29 688.42 C 483.67 697.77 479.28 706.86 471.44 713.17 Z"/>
  <path class="cls-4" d="M535.29,654.89a2.2,2.2,0,0,1-1.17-.33c-19.17-11.92-20.4-37.85-20.44-38.95a2.21,2.21,0,0,1,4.42-.18c0,0.25,1.21,24.71,18.36,35.37A2.21,2.21,0,0,1,535.29,654.89Z"/>
  <path class="cls-2" d="M533.84,642.32a5.13,5.13,0,0,0,5,4.49,4,4,0,0,0,4-4.49,5.13,5.13,0,0,0-5-4.49A4,4,0,0,0,533.84,642.32Z"/>
  <path class="cls-3" d="M1029.44,351.77h-524c0-144.69,117.3-262,262-262S1029.44,207.08,1029.44,351.77Z" style="fill: rgb(25, 57, 68);"/>
  <path class="cls-1" d="M878.77,351.77H656.13c0-144.69,49.84-262,111.32-262S878.77,207.08,878.77,351.77Z" style="fill: rgb(33, 95, 118);"/>
  <path class="cls-2" d="M1029.44,351.77s-94.37,58.5-262,58.5-262-58.5-262-58.5,94.38-58.5,262-58.5S1029.44,351.77,1029.44,351.77Z"/>
  <path class="cls-4" d="M767.45,412.44c-86.87,0-153.73-16-194.53-29.36-44.28-14.54-68.37-29.32-68.61-29.47a2.18,2.18,0,0,1,0-3.7c0.24-.15,24.33-14.93,68.61-29.47,40.79-13.39,107.66-29.36,194.53-29.36s153.74,16,194.53,29.36c44.28,14.54,68.37,29.32,68.6,29.47a2.17,2.17,0,0,1,0,3.7c-0.24.15-24.33,14.93-68.6,29.47C921.19,396.48,854.32,412.44,767.45,412.44ZM509.81,351.77c7.85,4.38,30,15.87,64.65,27.24,40.46,13.27,106.79,29.08,193,29.08S920,392.28,960.45,379c34.68-11.37,56.8-22.86,64.64-27.24-7.85-4.38-30-15.87-64.64-27.24-40.46-13.27-106.79-29.08-193-29.08s-152.53,15.82-193,29.08C539.77,335.9,517.65,347.39,509.81,351.77Z"/>
  <path class="cls-4" d="M767.45,546.72a2.21,2.21,0,0,1-1.31-.43l-262-192.73a2.21,2.21,0,0,1,2.62-3.56l255.15,187.7L655.13,303.11a2.21,2.21,0,0,1,4-1.83l110.3,242.31A2.21,2.21,0,0,1,767.45,546.72Z"/>
  <path class="cls-4" d="M767.45,546.72a2.21,2.21,0,0,1-2-3.13l110.3-242.31a2.21,2.21,0,0,1,4,1.83L773,537.69,1028.13,350a2.21,2.21,0,1,1,2.62,3.56l-262,192.73A2.2,2.2,0,0,1,767.45,546.72Z"/>
  <path class="cls-3" d="M979.26,690.51A76.44,76.44,0,0,1,978,704.58C971.2,741.52,939.81,769.83,877,788.3s-131.73,9.85-131.73,9.85-70.79-70.79-114.5-109-57.66-84.09-35.91-115.91c0,0,37.76-18.28,87.62-25.67s73.87-8,97.88.62,182.2,98.49,182.2,98.49,10.44,9.86,14.8,28c-7.84-3-24.57-8.92-27.61-5.37S969.08,685.21,979.26,690.51Z" style="fill: rgb(25, 57, 68);"/>
  <path class="cls-4" d="M610.7,670.88a2.21,2.21,0,0,1-1.71-.8c-26-31.48-33.28-65.88-19.56-92a2.21,2.21,0,0,1,3.92,2.06c-12.87,24.51-5.74,57.09,19.05,87.15A2.21,2.21,0,0,1,610.7,670.88Z"/>
  <path class="cls-4" d="M960.56,665.17a2.21,2.21,0,0,1-2.1-1.52,75.22,75.22,0,0,0-3.67-9,2.21,2.21,0,0,1,4-1.93,79.45,79.45,0,0,1,3.89,9.57A2.21,2.21,0,0,1,960.56,665.17Z"/>
  <path class="cls-4" d="M746.77,785.21a2.21,2.21,0,0,1-.16-4.42c1.29-.09,129.32-9.54,167.8-29.75,26.73-14,43.82-35.72,46.89-59.47a2.21,2.21,0,1,1,4.39.57c-3.25,25.19-21.19,48.09-49.22,62.82-39.29,20.64-164.24,29.87-169.54,30.25h-0.16Z"/>
  <path class="cls-2" d="M683.37,566.9A47.87,47.87,0,0,1,663,602c-6-11.05-16.68-23.9-16.68-23.9-3.61,11.16-3.19,24.21-2.27,29.93-23.12,1.08-32.18-18.53-32.18-18.53-4.07-21.28,8.5-42.4,23.75-46.8C669.38,533,683.37,566.9,683.37,566.9Z"/>
  <path class="cls-4" d="M642.29,610.25c-22.91,0-32.25-19.63-32.34-19.83a2.18,2.18,0,0,1-.16-0.5c-4.48-23.46,9.73-44.81,25.28-49.3,35.17-10.16,50.17,25.1,50.32,25.45a2.18,2.18,0,0,1,.16,1,50.27,50.27,0,0,1-21.23,36.68,2.17,2.17,0,0,1-3.18-.74c-4-7.41-10.28-15.77-13.8-20.26a72.38,72.38,0,0,0-1.09,24.91,2.17,2.17,0,0,1-2,2.52C643.55,610.24,642.91,610.25,642.29,610.25ZM614,588.82c1.05,2.1,9,16.76,27.63,17.08-0.65-6.43-.71-18,2.67-28.47a2.18,2.18,0,0,1,3.74-.72,187.58,187.58,0,0,1,15.69,22.06,45.73,45.73,0,0,0,17.42-31.53c-1.86-4.13-15.23-31-44.88-22.45C622.6,548.74,610.24,568.37,614,588.82Z"/>
  <path class="cls-3" d="M829.28,691.1c-3.75,11.8-10.71,21.75-22.16,28.1-9.79,5.43-21.24,5.67-33.27,2.59-47.71-12.21-104.67-76.59-104.67-76.59l10-40.69,61.84,21.67c-13.74-40.17-16.87-70.63,6.87-76.11,20.61-4.75,42.81,5.82,59.19,28C819.65,595,841.45,652.8,829.28,691.1Z" style="fill: rgb(33, 95, 118);"/>
  <path class="cls-2" d="M829.28,691.1c-3.75,11.8-10.71,21.75-22.16,28.1-9.79,5.43-21.24,5.67-33.27,2.59-6.85-13.68-12.51-32.87,2.62-43.82C792.35,666.48,817.72,674.86,829.28,691.1Z"/>
  <path class="cls-4" d="M788.44,726a61.16,61.16,0,0,1-15.14-2c-47.82-12.24-103.43-74.62-105.78-77.27a2.21,2.21,0,0,1-.49-2l10-40.69a2.21,2.21,0,0,1,2.88-1.56l57.57,20.17c-10.32-31.43-12-51.71-5.43-63.61,3.19-5.74,8.35-9.46,15.33-11.07,21.5-5,44.47,5.83,61.47,28.85,6.13,8.3,14.91,26.76,20.71,49.27,4.63,18,8.7,44,1.78,65.73h0c-4.22,13.29-12,23.17-23.2,29.37A40.1,40.1,0,0,1,788.44,726ZM671.61,644.59c7,7.65,59.25,63.92,102.79,75.06,12.42,3.18,23.07,2.38,31.65-2.38,10.15-5.63,17.25-14.66,21.13-26.84h0c11.94-37.58-9.89-94.86-21.83-111-15.91-21.56-37.19-31.71-56.91-27.17-5.79,1.34-9.87,4.25-12.46,8.91-6.17,11.11-3.82,32.15,7.19,64.33a2.21,2.21,0,0,1-2.82,2.8L680.78,607.4ZM829.28,691.1h0Z"/>
  <path class="cls-4" d="M787.94,665.17a2.21,2.21,0,0,1-2-1.21c-11.9-23.51-39.52-31.59-39.8-31.67a2.21,2.21,0,0,1,1.2-4.26c1.21,0.34,29.75,8.65,42.54,33.93A2.21,2.21,0,0,1,787.94,665.17Z"/>
  <path class="cls-4" d="M685.42,654.89a2.21,2.21,0,0,1-1.23-4.05c15.86-10.57,14.4-34.92,14.38-35.16a2.21,2.21,0,0,1,4.41-.3c0.08,1.1,1.67,27.14-16.34,39.15A2.2,2.2,0,0,1,685.42,654.89Z"/>
  <circle class="cls-2" cx="681.26" cy="642.32" r="4.49"/>
  <path class="cls-2" d="M588.37,570.83C599,588.67,615,608.52,635.79,594.52c24.77-16.65,33.19-43.62,21.54-69.15S627.24,491,598.17,508.15a51.56,51.56,0,0,0-7,5c-15.3,12.92-17.32,31.56-8.25,48.08C584.53,564.17,586.35,567.47,588.37,570.83Z"/>
  <path class="cls-4" d="M621.82,601.42a22.61,22.61,0,0,1-4.95-.55c-13.54-3-23.81-18-30.36-28.92-2-3.4-3.92-6.8-5.52-9.72-10-18.29-6.68-37.75,8.75-50.79a54,54,0,0,1,7.32-5.17c14.31-8.45,26.89-11.06,37.36-7.77,10.09,3.17,18.46,11.91,24.88,26,12.07,26.43,3.31,54.64-22.3,71.86C632,599.72,626.87,601.42,621.82,601.42Zm3.33-99.94c-7.58,0-16.24,2.86-25.88,8.55a49.63,49.63,0,0,0-6.73,4.75c-13.76,11.62-16.73,29-7.74,45.37,1.65,3,3.43,6.23,5.44,9.57h0c6.14,10.27,15.67,24.24,27.58,26.91,5.52,1.24,11,0,16.75-3.91,23.75-16,31.91-42.05,20.77-66.44-6-13.06-13.23-20.78-22.22-23.61A26.43,26.43,0,0,0,625.15,501.48Z"/>
  <path class="cls-4" d="M667.51,526.42a86.21,86.21,0,0,1-3.75,14.49l-13.08,7.14-7.34-8.19s-8.73,3.62-13.2-1.32a3.69,3.69,0,0,1-.3-0.35c-1.34-1.68-7-9.29-11.89-23,0,0-16.3,18.69-26.94,25.11-3.82,2.31-9.24,3-14.63,2.85-10.78-.23-25.11-10.91-28.1-21.27l-0.06-.2c-4.21-15.26,7.74-8.92,7.74-8.92s-3.22-12.37,3.52-16.52,16.21,4.23,16.21,4.23a124,124,0,0,1,40.94-21.3c29.53-8.7,31.56,13.5,31.56,13.5S671.53,489.72,667.51,526.42Z"/>
  <path class="cls-2" d="M652.93,545.23c-6.13-10.08-3.28-23.43,6.76-29.62a19.64,19.64,0,0,1,6.94-2.67c14.81-2.61,25.7,29.63-7.57,42.37Z"/>
  <path class="cls-4" d="M659.05,557.82a2.51,2.51,0,0,1-.9-4.85c18.34-7,22-19.76,19.57-28.55-1.66-6-6.14-9.8-10.67-9a17.21,17.21,0,0,0-6.06,2.33c-8.76,5.4-11.42,17.15-5.93,26.19a2.51,2.51,0,1,1-4.29,2.61c-6.92-11.38-3.52-26.21,7.58-33.06a22.2,22.2,0,0,1,7.82-3c7.12-1.25,14,4,16.37,12.61,3.23,11.67-2.51,26.88-22.61,34.57A2.5,2.5,0,0,1,659.05,557.82Z"/>
  <rect class="cls-2" x="593.27" y="582.35" width="25.83" height="14.29"/>
  <path class="cls-4" d="M619.1,598.82H593.27a2.17,2.17,0,0,1-2.17-2.17V582.35a2.17,2.17,0,0,1,2.17-2.17H619.1a2.17,2.17,0,0,1,2.17,2.17v14.29A2.17,2.17,0,0,1,619.1,598.82Zm-23.65-4.35h21.48v-9.94H595.45v9.94Z"/>
  <rect class="cls-2" x="593.27" y="591.19" width="25.83" height="5.45"/>
  <path class="cls-4" d="M619.1,598.82H593.27a2.17,2.17,0,0,1-2.17-2.17v-5.45a2.17,2.17,0,0,1,2.17-2.17H619.1a2.17,2.17,0,0,1,2.17,2.17v5.45A2.17,2.17,0,0,1,619.1,598.82Zm-23.65-4.35h21.48v-1.1H595.45v1.1Z"/>
  <path class="cls-2" d="M675,624l-63.35,5.87L622,561.25a11.28,11.28,0,0,1,22.16-2,0,0,0,0,0,0,0Z"/>
  <path class="cls-4" d="M611.6,632.09a2.17,2.17,0,0,1-2.15-2.5L619.85,561a13.45,13.45,0,0,1,26.38-2.52l30.69,64.62a2.17,2.17,0,0,1-1.76,3.1l-63.35,5.87h-0.2ZM633.26,553a9.1,9.1,0,0,0-9.07,8.44c0,0.06,0,.12,0,0.18l-10,65.92,57.49-5.33-29.43-62h0a2.31,2.31,0,0,1-.15-0.42h0A9.11,9.11,0,0,0,633.26,553Z"/>
  <circle class="cls-2" cx="644.27" cy="637.68" r="33.57"/>
  <path class="cls-4" d="M644.27,673.43A35.75,35.75,0,1,1,680,637.68,35.79,35.79,0,0,1,644.27,673.43Zm0-67.15a31.4,31.4,0,1,0,31.4,31.4A31.44,31.44,0,0,0,644.27,606.28Z"/>
  <circle class="cls-2" cx="644.27" cy="637.68" r="20.72"/>
  <path class="cls-4" d="M644.27,660.58a22.89,22.89,0,1,1,22.89-22.89A22.92,22.92,0,0,1,644.27,660.58Zm0-41.44a18.54,18.54,0,1,0,18.54,18.54A18.57,18.57,0,0,0,644.27,619.14Z"/>
  <path class="cls-2" d="M537.95,624l63.35,5.87-10.41-68.66a11.28,11.28,0,0,0-22.16-2,0,0,0,0,1,0,0Z"/>
  <path class="cls-4" d="M601.3,632.09h-0.2l-63.35-5.87a2.17,2.17,0,0,1-1.76-3.1l30.69-64.62A13.45,13.45,0,0,1,593,561l10.4,68.58A2.17,2.17,0,0,1,601.3,632.09Zm-60.05-9.93,57.49,5.33-10-65.92c0-.06,0-0.12,0-0.18a9.1,9.1,0,0,0-17.89-1.63h0a2.25,2.25,0,0,1-.15.42h0Z"/>
  <circle class="cls-2" cx="568.63" cy="637.68" r="33.57"/>
  <path class="cls-4" d="M568.63,673.43a35.75,35.75,0,1,1,35.75-35.75A35.79,35.79,0,0,1,568.63,673.43Zm0-67.15a31.4,31.4,0,1,0,31.4,31.4A31.44,31.44,0,0,0,568.63,606.28Z"/>
  <circle class="cls-2" cx="568.63" cy="637.68" r="20.72"/>
  <path class="cls-4" d="M568.63,660.58a22.89,22.89,0,1,1,22.89-22.89A22.92,22.92,0,0,1,568.63,660.58Zm0-41.44a18.54,18.54,0,1,0,18.54,18.54A18.57,18.57,0,0,0,568.63,619.14Z"/>
  <path class="cls-2" d="M634.23,576.53s-13.76-2.29-4.36-10.32S659,561.63,664,570.8c0,0,10.72,0,19.24,15.45,6.3,11.43,1,23.15-5.65,33-1.68,2.47-4,1.51-4.45-1.45-4.71-8.76-6.72-20.28-19-20.42C634.92,597.16,628.27,592.35,634.23,576.53Z"/>
  <path class="cls-4" d="M675.5,622.85a3.87,3.87,0,0,1-.86-0.1,5,5,0,0,1-3.55-4.22c-0.93-1.77-1.76-3.63-2.57-5.43-3.22-7.21-6-13.44-14.37-13.54-12.46-.15-19.13-2.19-22.3-6.83-2.38-3.49-2.54-8.18-.47-14.65-2.5-.76-5.93-2.35-6.78-5.42-0.72-2.58.58-5.31,3.86-8.11,5.08-4.34,13.13-6,21.53-4.47,6.86,1.25,12.48,4.45,15.32,8.65,3.34,0.49,12.47,3,19.86,16.46,7.3,13.25.21,26.49-5.76,35.29A4.84,4.84,0,0,1,675.5,622.85Zm0.22-4.29h0ZM644,563.89c-5.08,0-9.69,1.4-12.72,4-2.09,1.78-2.66,3-2.49,3.63,0.35,1.28,3.65,2.52,5.8,2.88a2.18,2.18,0,0,1,1.67,2.91c-2.32,6.15-2.59,10.4-.82,13,2.21,3.24,8.18,4.81,18.76,4.94,11.16,0.13,14.95,8.63,18.29,16.12,0.82,1.83,1.66,3.73,2.59,5.45a2.17,2.17,0,0,1,.24.71,2.65,2.65,0,0,0,.26.85,2.39,2.39,0,0,0,.25-0.31c8.47-12.48,10.23-22.25,5.55-30.75-7.71-14-17-14.32-17.35-14.32a2.21,2.21,0,0,1-1.89-1.13c-1.93-3.51-6.88-6.38-12.91-7.48A29.05,29.05,0,0,0,644,563.89Z"/>
  <path class="cls-4" d="M636.88,577.35a2.21,2.21,0,0,1-1-4.17,46.61,46.61,0,0,1,22.49-4.42,2.21,2.21,0,1,1-.24,4.42,43.07,43.07,0,0,0-20.18,3.92A2.2,2.2,0,0,1,636.88,577.35Z"/>
  <path class="cls-2" d="M577.46,580.51s13.76-2.29,4.36-10.32-29.12-4.59-34.16,4.59c0,0-10.72,0-19.24,15.45-6.3,11.43-1,23.15,5.65,33,1.68,2.47,4,1.51,4.45-1.45,4.71-8.76,6.72-20.28,19-20.42C576.77,601.15,583.42,596.33,577.46,580.51Z"/>
  <path class="cls-4" d="M536.19,626.83a4.84,4.84,0,0,1-3.92-2.37c-6-8.8-13.06-22-5.76-35.29,7.39-13.41,16.52-16,19.86-16.46,2.84-4.2,8.47-7.4,15.32-8.65,8.4-1.53,16.45.14,21.53,4.47,3.28,2.8,4.58,5.53,3.86,8.11-0.85,3.06-4.29,4.65-6.78,5.42,2.08,6.47,1.92,11.16-.47,14.65-3.17,4.64-9.84,6.68-22.3,6.83-8.37.1-11.15,6.33-14.37,13.54-0.8,1.8-1.63,3.66-2.57,5.43a5,5,0,0,1-3.55,4.22A3.87,3.87,0,0,1,536.19,626.83ZM547.66,577c-0.37,0-9.63.34-17.33,14.32-4.68,8.49-2.92,18.26,5.55,30.75a2.34,2.34,0,0,0,.25.31,2.65,2.65,0,0,0,.26-0.85,2.17,2.17,0,0,1,.24-0.71c0.93-1.72,1.77-3.62,2.59-5.45,3.34-7.49,7.13-16,18.29-16.12,10.58-.13,16.55-1.69,18.76-4.94,1.76-2.58,1.49-6.83-.82-13a2.18,2.18,0,0,1,1.68-2.91c2.15-.36,5.44-1.6,5.8-2.88,0.16-.59-0.41-1.85-2.49-3.63-4-3.44-10.9-4.78-17.93-3.5-6,1.1-11,4-12.91,7.48a2.18,2.18,0,0,1-1.91,1.13h0Z"/>
  <path class="cls-4" d="M574.82,581.33a2.2,2.2,0,0,1-1-.25h0a43,43,0,0,0-20.18-3.92,2.21,2.21,0,0,1-.24-4.42,46.65,46.65,0,0,1,22.49,4.42A2.21,2.21,0,0,1,574.82,581.33Z"/>
  <circle class="cls-3" cx="563.71" cy="795.98" r="12.99" style="fill: rgb(25, 57, 68);"/>
  <circle class="cls-1" cx="589.83" cy="865.94" r="5.06"/>
  <circle class="cls-3" cx="230.77" cy="1080.09" r="11.33" style="fill: rgb(25, 57, 68);"/>
  <circle class="cls-1" cx="499.8" cy="1175.24" r="9.69"/>
  <circle class="cls-3" cx="538.46" cy="1207.69" r="5.02" style="fill: rgb(25, 57, 68);"/>
  <path class="cls-4" d="M1114.47,632.93a2,2,0,0,1-2-2V617.35a2,2,0,0,1,4,0v13.57A2,2,0,0,1,1114.47,632.93Z"/>
  <path class="cls-4" d="M1134.94,639.83h-13.57a2,2,0,1,1,0-4h13.57A2,2,0,1,1,1134.94,639.83Z"/>
  <path class="cls-4" d="M1114.47,660.3a2,2,0,0,1-2-2V644.71a2,2,0,0,1,4,0v13.57A2,2,0,0,1,1114.47,660.3Z"/>
  <path class="cls-4" d="M1107.58,639.83H1094a2,2,0,1,1,0-4h13.57A2,2,0,1,1,1107.58,639.83Z"/>
  <path class="cls-4" d="M1029.44,1064.89a2,2,0,0,1-2-2V1051.3a2,2,0,0,1,4,0v11.58A2,2,0,0,1,1029.44,1064.89Z"/>
  <path class="cls-4" d="M1046.9,1070.78h-11.58a2,2,0,1,1,0-4h11.58A2,2,0,1,1,1046.9,1070.78Z"/>
  <path class="cls-4" d="M1029.44,1088.24a2,2,0,0,1-2-2v-11.58a2,2,0,1,1,4,0v11.58A2,2,0,0,1,1029.44,1088.24Z"/>
  <path class="cls-4" d="M1023.56,1070.78H1012a2,2,0,0,1,0-4h11.58A2,2,0,0,1,1023.56,1070.78Z"/>
</svg>